<?xml version="1.0" encoding="utf-8"?>
<svg version="1.1" xmlns:xlink="http://www.w3.org/1999/xlink" width="110px" height="50px" xmlns="http://www.w3.org/2000/svg">
  <defs>
    <mask fill="white" id="clip3">
      <path d="M 0 46  L 0 4  C 0 1.7599999999999907  1.759999999999991 0  4 0  L 64 0  L 75 0  L 106 0  C 108.24000000000001 0  110 1.7599999999999907  110 4  L 110 46  C 110 48.24000000000001  108.24000000000001 50  106 50  L 4 50  C 1.759999999999991 50  0 48.24000000000001  0 46  Z " fill-rule="evenodd" />
    </mask>
  </defs>
  <g transform="matrix(1 0 0 1 -140 -225 )">
    <path d="M 0 46  L 0 4  C 0 1.7599999999999907  1.759999999999991 0  4 0  L 64 0  L 75 0  L 106 0  C 108.24000000000001 0  110 1.7599999999999907  110 4  L 110 46  C 110 48.24000000000001  108.24000000000001 50  106 50  L 4 50  C 1.759999999999991 50  0 48.24000000000001  0 46  Z " fill-rule="nonzero" fill="#ffffff" stroke="none" transform="matrix(1 0 0 1 140 225 )" />
    <path d="M 0 46  L 0 4  C 0 1.7599999999999907  1.759999999999991 0  4 0  L 64 0  L 75 0  L 106 0  C 108.24000000000001 0  110 1.7599999999999907  110 4  L 110 46  C 110 48.24000000000001  108.24000000000001 50  106 50  L 4 50  C 1.759999999999991 50  0 48.24000000000001  0 46  Z " stroke-width="6" stroke="#0083b1" fill="none" transform="matrix(1 0 0 1 140 225 )" mask="url(#clip3)" />
  </g>
</svg>