<svg xmlns="http://www.w3.org/2000/svg" width="16" height="18" fill="none" viewBox="0 0 16 18"><path fill="#1482C5" fill-rule="evenodd" d="M9 15h6a1 1 0 0 1 0 2H9a1 1 0 0 1 0-2Z" clip-rule="evenodd"/><path fill="#1482C5" stroke="#1482C5" stroke-width=".5" d="M3.701 17c-.053 0-.107 0-.16-.043-.215-.044-.376-.26-.376-.433l.965-5.88H1.557c-.16 0-.322-.044-.429-.174-.107-.086-.16-.216-.107-.346L3.38 1.346C3.433 1.13 3.648 1 3.916 1l6.593.13c.161 0 .375.086.43.216.053.13.106.303 0 .432L7.453 7.616h2.894c.215 0 .376.087.483.216a.33.33 0 0 1 0 .433l-6.647 8.519A.603.603 0 0 1 3.7 17ZM2.254 9.778h2.52a.7.7 0 0 1 .428.13c.107.087.161.216.107.346l-.696 4.41 4.824-6.183H6.65c-.161 0-.376-.086-.43-.216-.053-.13-.106-.303-.053-.433l3.485-5.837-5.254-.087-2.144 7.87Z"/></svg>