<?xml version="1.0" encoding="utf-8"?>
<svg version="1.1" xmlns:xlink="http://www.w3.org/1999/xlink" width="190px" height="190px" xmlns="http://www.w3.org/2000/svg">
  <g transform="matrix(1 0 0 1 -99 -106 )">
    <path d="M 194 113  C 243.28 113  282 151.72  282 201  C 282 250.28  243.28 289  194 289  C 144.72 289  106 250.28  106 201  C 106 151.72  144.72 113  194 113  Z " fill-rule="nonzero" fill="#ffffff" stroke="none" />
    <path d="M 194 110  C 244.96 110  285 150.04  285 201  C 285 251.96  244.96 292  194 292  C 143.04 292  103 251.96  103 201  C 103 150.04  143.04 110  194 110  Z " stroke-width="8" stroke="#f3f3f3" fill="none" />
  </g>
</svg>