<svg xmlns="http://www.w3.org/2000/svg" width="20" height="20" fill="none" viewBox="0 0 20 20"><path stroke="#718096" d="M15.5.5h-11a4 4 0 0 0-4 4v11a4 4 0 0 0 4 4h11a4 4 0 0 0 4-4v-11a4 4 0 0 0-4-4Z"/><path fill="#718096" fill-rule="evenodd" d="M9 5V4L4.448 6.5v1L9 9.5v-1C6.733 7.513 5.567 7.013 5.5 7c.069-.017 1.235-.683 3.5-2Zm-3.708 9.262c0-.178.07-.35.195-.477a.675.675 0 0 1 .225-.147.753.753 0 0 1 .288-.054c.12 0 .227.022.321.066a.64.64 0 0 1 .234.183.83.83 0 0 1 .141.27c.032.102.048.213.048.333 0 .18-.026.367-.078.561-.054.2-.128.392-.222.576a3.44 3.44 0 0 1-.84 1.053l-.18-.174a.222.222 0 0 1-.078-.168c0-.052.028-.106.084-.162.04-.044.091-.103.153-.177s.125-.159.189-.255.123-.202.177-.318c.054-.116.093-.24.117-.372h-.078a.71.71 0 0 1-.282-.054.647.647 0 0 1-.219-.153.698.698 0 0 1-.144-.234.834.834 0 0 1-.051-.297Z" clip-rule="evenodd"/></svg>