<svg xmlns="http://www.w3.org/2000/svg" width="15" height="15" fill="none" viewBox="0 0 15 15"><mask id="a" fill="#fff"><path fill-rule="evenodd" d="M2 2a1 1 0 0 0-1 1v10a1 1 0 0 0 1 1h11a1 1 0 0 0 1-1V5a1 1 0 0 0-1-1H7l-.49-.98a1.83 1.83 0 0 1-.019-.039C6.426 2.844 6.007 2 5.5 2H2Z" clip-rule="evenodd"/></mask><path fill="#718096" fill-rule="evenodd" d="M2 2a1 1 0 0 0-1 1v10a1 1 0 0 0 1 1h11a1 1 0 0 0 1-1V5a1 1 0 0 0-1-1H7l-.49-.98a1.83 1.83 0 0 1-.019-.039C6.426 2.844 6.007 2 5.5 2H2Z" clip-rule="evenodd"/><path fill="#37465E" d="m7 4-.894.447.276.553H7V4Zm-.49-.98-.895.446.895-.447Zm-.02-.04-.904.427.904-.427ZM2 3V1a2 2 0 0 0-2 2h2Zm0 2V3H0v2h2Zm0 8V5H0v8h2Zm0 0H0a2 2 0 0 0 2 2v-2Zm11 0H2v2h11v-2Zm0 0v2a2 2 0 0 0 2-2h-2Zm0-8v8h2V5h-2Zm0 0h2a2 2 0 0 0-2-2v2ZM7 5h6V3H7v2ZM5.615 3.466l.49.981 1.79-.894-.491-.981-1.789.894Zm-.028-.058.028.058 1.789-.894a.21.21 0 0 1-.008-.018l-1.809.854ZM5.5 3a.49.49 0 0 1-.226-.055.066.066 0 0 1-.003-.002l.003.001a2.16 2.16 0 0 1 .313.464l1.809-.854a4.147 4.147 0 0 0-.443-.726 2.541 2.541 0 0 0-.505-.503A1.613 1.613 0 0 0 5.5 1v2ZM2 3h3.5V1H2v2Z" mask="url(#a)"/></svg>