<svg xmlns="http://www.w3.org/2000/svg" width="20" height="20" fill="none" viewBox="0 0 20 20"><path stroke="#718096" d="M15.5.5h-11a4 4 0 0 0-4 4v11a4 4 0 0 0 4 4h11a4 4 0 0 0 4-4v-11a4 4 0 0 0-4-4Z"/><path fill="#718096" fill-rule="evenodd" d="M4.448 8.5v1L9 7V6L4.448 4v1c2.267.987 3.433 1.487 3.5 1.5-.069.017-1.235.683-3.5 2Z" clip-rule="evenodd"/><path fill="#718096" d="M5.394 15.34a.8.8 0 0 1 .054-.294.829.829 0 0 1 .156-.24.77.77 0 0 1 .534-.222.77.77 0 0 1 .696.462c.04.092.06.19.06.294a.744.744 0 0 1-.222.534.692.692 0 0 1-.24.156.73.73 0 0 1-.294.06.73.73 0 0 1-.294-.06.692.692 0 0 1-.396-.39.816.816 0 0 1-.054-.3Z"/></svg>