<?xml version="1.0" encoding="utf-8"?>
<svg version="1.1" xmlns:xlink="http://www.w3.org/1999/xlink" width="20px" height="20px" viewBox="66 489.5  20 20" xmlns="http://www.w3.org/2000/svg">
  <path d="M 76 489.5  C 81.6 489.5  86 493.9  86 499.5  C 86 505.1  81.6 509.5  76 509.5  C 70.4 509.5  66 505.1  66 499.5  C 66 493.9  70.4 489.5  76 489.5  Z " fill-rule="nonzero" fill="#981654" stroke="none" />
  <path d="M 76 490  C 81.32 490  85.5 494.18  85.5 499.5  C 85.5 504.82  81.32 509  76 509  C 70.68 509  66.5 504.82  66.5 499.5  C 66.5 494.18  70.68 490  76 490  Z " stroke-width="1" stroke="#f3f3f3" fill="none" />
  <path d="M 76 504.5  C 73.2 504.5  71 502.3  71 499.5  C 71 496.7  73.2 494.5  76 494.5  C 78.8 494.5  81 496.7  81 499.5  C 81 502.3  78.8 504.5  76 504.5  " fill-rule="nonzero" fill="#f3f3f3" stroke="none" />
</svg>