<?xml version="1.0" encoding="utf-8"?>
<svg version="1.1" xmlns:xlink="http://www.w3.org/1999/xlink" width="20px" height="20px" viewBox="66 570.5  20 20" xmlns="http://www.w3.org/2000/svg">
  <path d="M 76 570.5  C 81.6 570.5  86 574.9  86 580.5  C 86 586.1  81.6 590.5  76 590.5  C 70.4 590.5  66 586.1  66 580.5  C 66 574.9  70.4 570.5  76 570.5  Z " fill-rule="nonzero" fill="#981654" stroke="none" />
  <path d="M 76 571  C 81.32 571  85.5 575.18  85.5 580.5  C 85.5 585.82  81.32 590  76 590  C 70.68 590  66.5 585.82  66.5 580.5  C 66.5 575.18  70.68 571  76 571  Z " stroke-width="1" stroke="#f3f3f3" fill="none" />
  <path d="M 76 585.5  C 73.2 585.5  71 583.3  71 580.5  C 71 577.7  73.2 575.5  76 575.5  C 78.8 575.5  81 577.7  81 580.5  C 81 583.3  78.8 585.5  76 585.5  " fill-rule="nonzero" fill="#f3f3f3" stroke="none" />
</svg>