<?xml version="1.0" encoding="utf-8"?>
<svg version="1.1" xmlns:xlink="http://www.w3.org/1999/xlink" width="20px" height="20px" viewBox="66 365.5  20 20" xmlns="http://www.w3.org/2000/svg">
  <path d="M 76 365.5  C 81.6 365.5  86 369.9  86 375.5  C 86 381.1  81.6 385.5  76 385.5  C 70.4 385.5  66 381.1  66 375.5  C 66 369.9  70.4 365.5  76 365.5  Z " fill-rule="nonzero" fill="#981654" stroke="none" />
  <path d="M 76 366  C 81.32 366  85.5 370.18  85.5 375.5  C 85.5 380.82  81.32 385  76 385  C 70.68 385  66.5 380.82  66.5 375.5  C 66.5 370.18  70.68 366  76 366  Z " stroke-width="1" stroke="#f3f3f3" fill="none" />
  <path d="M 76 380.5  C 73.2 380.5  71 378.3  71 375.5  C 71 372.7  73.2 370.5  76 370.5  C 78.8 370.5  81 372.7  81 375.5  C 81 378.3  78.8 380.5  76 380.5  " fill-rule="nonzero" fill="#f3f3f3" stroke="none" />
</svg>