<?xml version="1.0" encoding="utf-8"?>
<svg version="1.1" xmlns:xlink="http://www.w3.org/1999/xlink" width="20px" height="20px" viewBox="66 457  20 20" xmlns="http://www.w3.org/2000/svg">
  <path d="M 76 457  C 81.6 457  86 461.4  86 467  C 86 472.6  81.6 477  76 477  C 70.4 477  66 472.6  66 467  C 66 461.4  70.4 457  76 457  Z " fill-rule="nonzero" fill="#981654" stroke="none" />
  <path d="M 76 457.5  C 81.32 457.5  85.5 461.68  85.5 467  C 85.5 472.32  81.32 476.5  76 476.5  C 70.68 476.5  66.5 472.32  66.5 467  C 66.5 461.68  70.68 457.5  76 457.5  Z " stroke-width="1" stroke="#f3f3f3" fill="none" />
  <path d="M 76 472  C 73.2 472  71 469.8  71 467  C 71 464.2  73.2 462  76 462  C 78.8 462  81 464.2  81 467  C 81 469.8  78.8 472  76 472  " fill-rule="nonzero" fill="#f3f3f3" stroke="none" />
</svg>