<?xml version="1.0" encoding="utf-8"?>
<svg version="1.1" xmlns:xlink="http://www.w3.org/1999/xlink" width="20px" height="20px" viewBox="66 517  20 20" xmlns="http://www.w3.org/2000/svg">
  <path d="M 76 517  C 81.6 517  86 521.4  86 527  C 86 532.6  81.6 537  76 537  C 70.4 537  66 532.6  66 527  C 66 521.4  70.4 517  76 517  Z " fill-rule="nonzero" fill="#981654" stroke="none" />
  <path d="M 76 517.5  C 81.32 517.5  85.5 521.68  85.5 527  C 85.5 532.32  81.32 536.5  76 536.5  C 70.68 536.5  66.5 532.32  66.5 527  C 66.5 521.68  70.68 517.5  76 517.5  Z " stroke-width="1" stroke="#f3f3f3" fill="none" />
  <path d="M 76 532  C 73.2 532  71 529.8  71 527  C 71 524.2  73.2 522  76 522  C 78.8 522  81 524.2  81 527  C 81 529.8  78.8 532  76 532  " fill-rule="nonzero" fill="#f3f3f3" stroke="none" />
</svg>