<?xml version="1.0" encoding="utf-8"?>
<svg version="1.1" xmlns:xlink="http://www.w3.org/1999/xlink" width="20px" height="20px" viewBox="66 544  20 20" xmlns="http://www.w3.org/2000/svg">
  <path d="M 76 544  C 81.6 544  86 548.4  86 554  C 86 559.6  81.6 564  76 564  C 70.4 564  66 559.6  66 554  C 66 548.4  70.4 544  76 544  Z " fill-rule="nonzero" fill="#981654" stroke="none" />
  <path d="M 76 544.5  C 81.32 544.5  85.5 548.68  85.5 554  C 85.5 559.32  81.32 563.5  76 563.5  C 70.68 563.5  66.5 559.32  66.5 554  C 66.5 548.68  70.68 544.5  76 544.5  Z " stroke-width="1" stroke="#f3f3f3" fill="none" />
  <path d="M 76 559  C 73.2 559  71 556.8  71 554  C 71 551.2  73.2 549  76 549  C 78.8 549  81 551.2  81 554  C 81 556.8  78.8 559  76 559  " fill-rule="nonzero" fill="#f3f3f3" stroke="none" />
</svg>