<?xml version="1.0" encoding="utf-8"?>
<svg version="1.1" xmlns:xlink="http://www.w3.org/1999/xlink" width="20px" height="20px" viewBox="66 333.5  20 20" xmlns="http://www.w3.org/2000/svg">
  <path d="M 76 333.5  C 81.6 333.5  86 337.9  86 343.5  C 86 349.1  81.6 353.5  76 353.5  C 70.4 353.5  66 349.1  66 343.5  C 66 337.9  70.4 333.5  76 333.5  Z " fill-rule="nonzero" fill="#981654" stroke="none" />
  <path d="M 76 334  C 81.32 334  85.5 338.18  85.5 343.5  C 85.5 348.82  81.32 353  76 353  C 70.68 353  66.5 348.82  66.5 343.5  C 66.5 338.18  70.68 334  76 334  Z " stroke-width="1" stroke="#f3f3f3" fill="none" />
  <path d="M 76 348.5  C 73.2 348.5  71 346.3  71 343.5  C 71 340.7  73.2 338.5  76 338.5  C 78.8 338.5  81 340.7  81 343.5  C 81 346.3  78.8 348.5  76 348.5  " fill-rule="nonzero" fill="#f3f3f3" stroke="none" />
</svg>