<?xml version="1.0" encoding="utf-8"?>
<svg version="1.1" xmlns:xlink="http://www.w3.org/1999/xlink" width="20px" height="20px" viewBox="66 308  20 20" xmlns="http://www.w3.org/2000/svg">
  <path d="M 76 308  C 81.6 308  86 312.4  86 318  C 86 323.6  81.6 328  76 328  C 70.4 328  66 323.6  66 318  C 66 312.4  70.4 308  76 308  Z " fill-rule="nonzero" fill="#981654" stroke="none" />
  <path d="M 76 308.5  C 81.32 308.5  85.5 312.68  85.5 318  C 85.5 323.32  81.32 327.5  76 327.5  C 70.68 327.5  66.5 323.32  66.5 318  C 66.5 312.68  70.68 308.5  76 308.5  Z " stroke-width="1" stroke="#f3f3f3" fill="none" />
  <path d="M 76 323  C 73.2 323  71 320.8  71 318  C 71 315.2  73.2 313  76 313  C 78.8 313  81 315.2  81 318  C 81 320.8  78.8 323  76 323  " fill-rule="nonzero" fill="#f3f3f3" stroke="none" />
</svg>