<?xml version="1.0" encoding="utf-8"?>
<svg version="1.1" xmlns:xlink="http://www.w3.org/1999/xlink" width="20px" height="20px" viewBox="66 441  20 20" xmlns="http://www.w3.org/2000/svg">
  <path d="M 76 441  C 81.6 441  86 445.4  86 451  C 86 456.6  81.6 461  76 461  C 70.4 461  66 456.6  66 451  C 66 445.4  70.4 441  76 441  Z " fill-rule="nonzero" fill="#981654" stroke="none" />
  <path d="M 76 441.5  C 81.32 441.5  85.5 445.68  85.5 451  C 85.5 456.32  81.32 460.5  76 460.5  C 70.68 460.5  66.5 456.32  66.5 451  C 66.5 445.68  70.68 441.5  76 441.5  Z " stroke-width="1" stroke="#f3f3f3" fill="none" />
  <path d="M 76 456  C 73.2 456  71 453.8  71 451  C 71 448.2  73.2 446  76 446  C 78.8 446  81 448.2  81 451  C 81 453.8  78.8 456  76 456  " fill-rule="nonzero" fill="#f3f3f3" stroke="none" />
</svg>