<?xml version="1.0" encoding="utf-8"?>
<svg version="1.1" xmlns:xlink="http://www.w3.org/1999/xlink" width="20px" height="20px" viewBox="66 639  20 20" xmlns="http://www.w3.org/2000/svg">
  <path d="M 76 639  C 81.6 639  86 643.4  86 649  C 86 654.6  81.6 659  76 659  C 70.4 659  66 654.6  66 649  C 66 643.4  70.4 639  76 639  Z " fill-rule="nonzero" fill="#981654" stroke="none" />
  <path d="M 76 639.5  C 81.32 639.5  85.5 643.68  85.5 649  C 85.5 654.32  81.32 658.5  76 658.5  C 70.68 658.5  66.5 654.32  66.5 649  C 66.5 643.68  70.68 639.5  76 639.5  Z " stroke-width="1" stroke="#f3f3f3" fill="none" />
  <path d="M 76 654  C 73.2 654  71 651.8  71 649  C 71 646.2  73.2 644  76 644  C 78.8 644  81 646.2  81 649  C 81 651.8  78.8 654  76 654  " fill-rule="nonzero" fill="#f3f3f3" stroke="none" />
</svg>