<?xml version="1.0" encoding="utf-8"?>
<svg version="1.1" xmlns:xlink="http://www.w3.org/1999/xlink" width="20px" height="20px" viewBox="66 601  20 20" xmlns="http://www.w3.org/2000/svg">
  <path d="M 76 601  C 81.6 601  86 605.4  86 611  C 86 616.6  81.6 621  76 621  C 70.4 621  66 616.6  66 611  C 66 605.4  70.4 601  76 601  Z " fill-rule="nonzero" fill="#981654" stroke="none" />
  <path d="M 76 601.5  C 81.32 601.5  85.5 605.68  85.5 611  C 85.5 616.32  81.32 620.5  76 620.5  C 70.68 620.5  66.5 616.32  66.5 611  C 66.5 605.68  70.68 601.5  76 601.5  Z " stroke-width="1" stroke="#f3f3f3" fill="none" />
  <path d="M 76 616  C 73.2 616  71 613.8  71 611  C 71 608.2  73.2 606  76 606  C 78.8 606  81 608.2  81 611  C 81 613.8  78.8 616  76 616  " fill-rule="nonzero" fill="#f3f3f3" stroke="none" />
</svg>