<?xml version="1.0" encoding="utf-8"?>
<svg version="1.1" xmlns:xlink="http://www.w3.org/1999/xlink" width="20px" height="20px" viewBox="66 334  20 20" xmlns="http://www.w3.org/2000/svg">
  <path d="M 76 334  C 81.6 334  86 338.4  86 344  C 86 349.6  81.6 354  76 354  C 70.4 354  66 349.6  66 344  C 66 338.4  70.4 334  76 334  Z " fill-rule="nonzero" fill="#981654" stroke="none" />
  <path d="M 76 334.5  C 81.32 334.5  85.5 338.68  85.5 344  C 85.5 349.32  81.32 353.5  76 353.5  C 70.68 353.5  66.5 349.32  66.5 344  C 66.5 338.68  70.68 334.5  76 334.5  Z " stroke-width="1" stroke="#f3f3f3" fill="none" />
  <path d="M 76 349  C 73.2 349  71 346.8  71 344  C 71 341.2  73.2 339  76 339  C 78.8 339  81 341.2  81 344  C 81 346.8  78.8 349  76 349  " fill-rule="nonzero" fill="#f3f3f3" stroke="none" />
</svg>